<svg xmlns="http://www.w3.org/2000/svg" version="1.1" xmlns:xlink="http://www.w3.org/1999/xlink" xmlns:svgjs="http://svgjs.dev/svgjs" width="1000" height="1000" viewBox="0 0 1000 1000"><g transform="matrix(0.7,0,0,0.7,150.00092093750015,106.25)"><svg viewBox="0 0 320 360" data-background-color="#ffffff" preserveAspectRatio="xMidYMid meet" height="1125" width="1000" xmlns="http://www.w3.org/2000/svg" xmlns:xlink="http://www.w3.org/1999/xlink"><g id="tight-bounds" transform="matrix(1,0,0,1,-0.00042100000007394556,0)"><svg viewBox="0 0 320 360" height="360" width="320"><g><svg></svg></g><g><svg viewBox="0 0 320 360" height="360" width="320"><g><path transform="translate(-9.31575,10.66434) scale(0.39811,0.39811)" d="M827.2 486c-0.2-21.2-13.6-38-13.8-59.2-0.1-21.2 13.1-46.8 12.9-68-6.7-20.1-24.7-31.9-31.4-52-6.7-20.1-2.1-48.6-8.7-68.7-12.6-17.1-33.4-22.7-45.9-39.7-12.6-17.1-17-45.6-29.5-62.6-17.2-12.3-38.7-11.3-56-23.6-17.2-12.3-30.2-38.1-47.5-50.4-20.2-6.4-40.3 1.3-60.5-5.2-20.2-6.4-40.5-26.9-60.7-33.3-21.2 0.2-38 13.6-59.2 13.8-21.2 0.1-46.8-13.1-68-12.9-20.1 6.7-31.9 24.7-52 31.4-20.1 6.7-48.6 2.1-68.7 8.8-17.1 12.6-22.7 33.4-39.7 45.9-17.1 12.6-45.6 17-62.6 29.6-12.3 17.2-11.3 38.7-23.6 56-12.3 17.2-38.1 30.2-50.4 47.5-6.4 20.2 1.2 40.3-5.2 60.5-6.4 20.2-26.9 40.5-33.3 60.7 0.1 21.2 13.6 38 13.8 59.2 0.1 21.2-13.1 46.8-12.9 68 6.7 20.1 24.7 31.9 31.4 52 6.7 20.1 2.1 48.6 8.8 68.7 12.6 17.1 33.4 22.7 45.9 39.8 12.6 17.1 17 45.6 29.5 62.6 17.2 12.3 38.7 11.3 56 23.6 17.2 12.3 30.2 38.1 47.5 50.4 20.2 6.4 40.3-1.2 60.5 5.2 20.2 6.4 40.5 26.9 60.7 33.3 21.2-0.2 38-13.6 59.2-13.8 21.2-0.1 46.8 13.1 68 12.9 20.1-6.7 31.9-24.7 52-31.4 20.1-6.7 48.6-2.1 68.7-8.8 17.1-12.6 22.7-33.4 39.8-45.9 17.1-12.6 45.6-17 62.6-29.5 12.3-17.2 11.3-38.7 23.6-56 12.3-17.2 38.1-30.2 50.4-47.5 6.4-20.2-1.2-40.3 5.2-60.5 6.2-20.4 26.7-40.7 33.1-60.9zM792 544.4c-9.1 17.9-31.4 33.8-40.6 51.7-9.1 17.9-5.1 37.9-14.2 55.8-14.2 14.2-40.3 22.4-54.6 36.6-14.2 14.2-16.5 34.5-30.8 48.7-17.9 9.1-45.3 8.8-63.2 18-17.9 9.1-26.4 27.7-44.3 36.8-19.9 3.1-45.8-5.6-65.7-2.5-19.9 3.1-33.7 18.2-53.5 21.3-19.9-3.1-41.8-19.5-61.7-22.6-19.9-3.2-37.6 6.9-57.5 3.7-17.9-9.1-33.8-31.5-51.7-40.6-17.9-9.1-37.9-5.1-55.9-14.2-14.2-14.2-22.4-40.3-36.6-54.6-14.2-14.2-34.5-16.6-48.7-30.8-9.1-17.9-8.8-45.3-18-63.2-9.1-17.9-27.7-26.4-36.8-44.3-3.1-19.9 5.6-45.8 2.5-65.7-3.2-19.9-18.2-33.7-21.3-53.5 3.2-19.9 19.5-41.8 22.6-61.7 3.1-19.9-6.9-37.6-3.7-57.5 9.1-17.9 31.5-33.8 40.6-51.7 9.1-17.9 5.1-37.9 14.2-55.9 14.2-14.2 40.3-22.4 54.6-36.6 14.2-14.2 16.6-34.5 30.8-48.7 17.9-9.1 45.3-8.8 63.2-18 17.9-9.1 26.4-27.7 44.3-36.8 19.9-3.1 45.8 5.6 65.7 2.5 19.9-3.1 33.7-18.2 53.5-21.3 19.9 3.1 41.8 19.5 61.7 22.6 19.9 3.2 37.6-6.9 57.5-3.7 17.9 9.1 33.8 31.5 51.7 40.6 17.9 9.1 37.9 5.1 55.9 14.2 14.2 14.2 22.4 40.3 36.6 54.6 14.2 14.2 34.5 16.6 48.7 30.8 9.1 17.9 8.8 45.3 18 63.2 9.1 17.9 27.7 26.4 36.8 44.3 3.2 19.9-5.6 45.8-2.5 65.7 3.1 19.9 18.2 33.7 21.3 53.5-3.1 19.9-19.5 41.8-22.6 61.7-3.1 19.9 6.9 37.7 3.7 57.6z" fill="#ffffff" fill-rule="nonzero" stroke="none" stroke-width="1" stroke-linecap="butt" stroke-linejoin="miter" stroke-miterlimit="10" stroke-dasharray="" stroke-dashoffset="0" font-family="none" font-weight="none" font-size="none" text-anchor="none" style="mix-blend-mode: normal" data-fill-palette-color="tertiary"></path></g><g transform="matrix(1,0,0,1,64.86460490906644,80.99999999999999)"><svg viewBox="0 0 190.2707901818671 198.00000000000003" height="198.00000000000003" width="190.2707901818671"><g><svg viewBox="0 0 224 233.09936305833858" height="198.00000000000003" width="190.2707901818671"><g transform="matrix(1,0,0,1,0,126.96802811310579)"><svg viewBox="0 0 224 106.1313349452328" height="106.1313349452328" width="224"><g id="textblocktransform"><svg viewBox="0 0 224 106.1313349452328" height="106.1313349452328" width="224" id="textblock"><g><svg viewBox="0 0 224 71.4126953327825" height="71.4126953327825" width="224"><g transform="matrix(1,0,0,1,0,0)"><svg width="224" viewBox="2.5042857142857153 -36.85125 118.38571428571429 37.747916666665" height="71.4126953327825" data-palette-color="#d9ba49"><path d="M12.65-8.64L12.21-8.74Q12.21-8.5 12.23-8.33 12.26-8.15 12.3-7.86L12.3-7.86Q12.4-7.52 12.38-7.4 12.35-7.28 12.35-7.08L12.35-7.08Q12.45-6.59 12.43-6.57 12.4-6.54 12.4-6.49L12.4-6.49Q12.4-6.4 12.43-6.23 12.45-6.05 12.45-5.91L12.45-5.91Q12.5-5.76 12.48-5.59 12.45-5.42 12.5-5.27L12.5-5.27Q12.5-4.83 12.52-4.81 12.55-4.79 12.55-4.74L12.55-4.74Q12.55-4.59 12.52-4.47 12.5-4.35 12.5-4.2L12.5-4.2Q12.5-4 12.6-3.52L12.6-3.52Q12.6-3.32 12.6-3.13 12.6-2.93 12.65-2.73L12.65-2.73 12.74-1.76Q12.84-1.32 12.82-1.25 12.79-1.17 12.84-1.07L12.84-1.07Q12.84-0.88 12.92-0.73 12.99-0.59 12.94-0.44L12.94-0.44Q12.89-0.29 12.74-0.24 12.6-0.2 12.45-0.1L12.45-0.1Q11.87 0.2 11.82 0.22 11.77 0.24 11.67 0.15L11.67 0.15Q11.57 0.24 11.4 0.2 11.23 0.15 11.13 0.2L11.13 0.2Q10.74 0.2 10.67 0.22 10.6 0.24 10.55 0.24L10.55 0.24Q10.06 0.15 9.81 0.15L9.81 0.15Q9.18 0.1 8.89 0.2L8.89 0.2Q8.35 0.15 8.28 0.17 8.2 0.2 8.11 0.2L8.11 0.2Q7.91 0.2 7.69 0.15 7.47 0.1 7.23 0.1L7.23 0.1Q6.69 0.15 6.67 0.17 6.64 0.2 6.59 0.2L6.59 0.2Q5.96 0.29 5.86 0.29L5.86 0.29Q5.37 0.24 5.18 0.24L5.18 0.24Q4.98 0.24 4.83 0.17 4.69 0.1 4.49 0.15L4.49 0.15Q4.3 0.15 4.1 0.2 3.91 0.24 3.81-0.05L3.81-0.05Q3.61-0.44 3.59-0.63 3.56-0.83 3.61-1.07L3.61-1.07 3.66-1.76 3.71-2.29Q3.76-2.49 3.81-2.64 3.86-2.78 3.86-2.98L3.86-2.98Q3.91-3.17 3.88-3.3 3.86-3.42 3.86-3.56L3.86-3.56Q3.86-3.91 3.91-4.25 3.96-4.59 3.96-4.98L3.96-4.98Q3.96-5.22 3.93-5.44 3.91-5.66 3.91-5.91L3.91-5.91Q3.96-6.4 3.93-6.64 3.91-6.88 3.91-7.13L3.91-7.13Q3.91-7.37 3.96-7.52 4-7.67 4-7.81L4-7.81Q4-8.01 3.98-8.18 3.96-8.35 3.96-8.54L3.96-8.54Q3.96-8.89 3.98-9.11 4-9.33 3.96-9.52L3.96-9.52Q3.81-10.01 3.91-10.01 4-10.01 3.96-10.11L3.96-10.11Q4-10.5 3.96-10.89 3.91-11.28 3.91-11.67L3.91-11.67Q3.91-12.06 3.93-12.38 3.96-12.7 3.91-13.09L3.91-13.09Q3.96-13.57 3.88-13.72 3.81-13.87 3.71-14.01L3.71-14.01Q3.71-14.26 3.74-14.48 3.76-14.7 3.76-14.99L3.76-14.99Q3.76-15.33 3.81-15.48 3.86-15.63 3.86-15.82L3.86-15.82Q3.86-16.02 3.78-16.26 3.71-16.5 3.71-16.7L3.71-16.7Q3.66-17.19 3.66-17.41 3.66-17.63 3.66-17.87L3.66-17.87Q3.66-18.31 3.71-18.33 3.76-18.36 3.71-18.41L3.71-18.41Q3.71-18.65 3.71-18.99L3.71-18.99Q3.61-19.68 3.64-19.92 3.66-20.17 3.66-20.36L3.66-20.36Q3.66-20.75 3.69-20.95 3.71-21.14 3.61-21.34L3.61-21.34Q3.61-21.63 3.59-21.7 3.56-21.78 3.56-21.92L3.56-21.92Q3.56-22.36 3.61-22.8 3.66-23.24 3.66-23.68L3.66-23.68Q3.61-24.02 3.61-24.32 3.61-24.61 3.61-25L3.61-25Q3.61-25.49 3.56-25.59 3.52-25.68 3.52-25.78L3.52-25.78Q3.52-26.22 3.54-26.42 3.56-26.61 3.47-26.71L3.47-26.71Q3.47-27.34 3.47-27.34L3.47-27.34Q3.37-27.78 3.37-28.03L3.37-28.03Q3.37-28.27 3.37-28.49 3.37-28.71 3.32-28.96L3.32-28.96Q3.17-29.69 3.2-29.96 3.22-30.22 3.22-30.52L3.22-30.52Q3.03-31.05 3-31.25 2.98-31.45 2.88-31.64L2.88-31.64Q2.78-32.18 2.83-32.25 2.88-32.32 2.83-32.42L2.83-32.42Q2.83-32.71 2.69-33.01L2.69-33.01Q2.78-33.15 2.71-33.33 2.64-33.5 2.64-33.64L2.64-33.64Q2.64-33.89 2.66-33.98 2.69-34.08 2.59-34.18L2.59-34.18Q2.49-34.57 2.51-34.62 2.54-34.67 2.54-34.77L2.54-34.77Q2.54-34.91 2.51-35.03 2.49-35.16 2.54-35.3L2.54-35.3Q2.64-35.55 2.83-35.84L2.83-35.84Q3.27-35.99 3.32-36.06 3.37-36.13 3.47-36.13L3.47-36.13 4.05-36.13Q4.25-36.18 4.39-36.13 4.54-36.08 4.69-36.08L4.69-36.08Q4.83-36.08 5.03-36.08 5.22-36.08 5.37-36.08L5.37-36.08Q5.86-35.99 5.93-36.01 6.01-36.04 6.1-36.04L6.1-36.04Q6.69-35.89 6.84-35.86 6.98-35.84 7.18-35.79L7.18-35.79Q7.57-35.79 7.74-35.74 7.91-35.69 8.11-35.69L8.11-35.69Q8.3-35.74 8.47-35.77 8.64-35.79 8.89-35.84L8.89-35.84 9.42-35.79Q9.91-35.79 9.94-35.82 9.96-35.84 10.06-35.84L10.06-35.84Q10.3-35.84 10.5-35.79 10.69-35.74 10.94-35.69L10.94-35.69Q11.18-35.69 11.45-35.74 11.72-35.79 11.96-35.79L11.96-35.79Q12.21-35.79 12.48-35.74 12.74-35.69 12.99-35.69L12.99-35.69 13.62-35.69 14.21-35.69Q14.5-35.69 14.67-35.67 14.84-35.64 15.09-35.6L15.09-35.6Q15.28-35.6 15.45-35.6 15.63-35.6 15.87-35.55L15.87-35.55Q16.11-35.55 16.36-35.55 16.6-35.55 16.89-35.5L16.89-35.5Q17.43-35.45 17.55-35.47 17.68-35.5 17.87-35.5L17.87-35.5Q18.21-35.5 18.33-35.47 18.46-35.45 18.65-35.45L18.65-35.45Q19.29-35.35 19.36-35.38 19.43-35.4 19.53-35.35L19.53-35.35Q19.63-35.3 19.82-35.25 20.02-35.21 20.17-35.16L20.17-35.16Q20.31-35.11 20.46-35.08 20.61-35.06 20.7-34.91L20.7-34.91Q20.9-35.01 21.04-34.89 21.19-34.77 21.44-34.77L21.44-34.77Q21.53-34.62 21.7-34.59 21.88-34.57 22.07-34.47L22.07-34.47 22.71-34.08Q23.24-33.84 23.41-33.69 23.58-33.54 23.83-33.45L23.83-33.45Q24.27-33.15 24.29-33.15 24.32-33.15 24.32-33.2L24.32-33.2Q24.76-32.76 24.76-32.76L24.76-32.76Q25.05-32.47 25.15-32.42 25.24-32.37 25.24-32.23L25.24-32.23Q25.44-32.08 25.56-31.98 25.68-31.88 25.73-31.79L25.73-31.79Q25.93-31.69 26.05-31.52 26.17-31.35 26.37-31.2L26.37-31.2 26.81-30.86Q27.1-30.32 27.17-30.2 27.25-30.08 27.25-29.98L27.25-29.98Q27.34-29.88 27.39-29.74 27.44-29.59 27.54-29.44L27.54-29.44Q27.83-28.71 27.98-28.42L27.98-28.42Q28.17-28.17 28.17-28.08 28.17-27.98 28.22-27.88L28.22-27.88Q28.42-27.54 28.42-27.49 28.42-27.44 28.47-27.34L28.47-27.34Q28.56-27.1 28.71-26.86L28.71-26.86 28.91-26.32Q29-26.17 29.03-26 29.05-25.83 29.15-25.68L29.15-25.68 29.35-24.8Q29.44-24.37 29.42-24.19 29.39-24.02 29.49-23.78L29.49-23.78Q29.54-23.19 29.57-23.07 29.59-22.95 29.54-22.8L29.54-22.8Q29.54-22.36 29.64-22.17L29.64-22.17Q29.54-22.02 29.57-21.78 29.59-21.53 29.59-21.29L29.59-21.29Q29.59-21.09 29.57-20.95 29.54-20.8 29.54-20.7L29.54-20.7Q29.44-20.17 29.54-19.97L29.54-19.97Q29.44-19.73 29.42-19.38 29.39-19.04 29.3-18.8L29.3-18.8Q29.2-18.65 29.2-18.46 29.2-18.26 29.15-18.02L29.15-18.02Q28.96-17.48 28.93-17.48 28.91-17.48 28.91-17.43L28.91-17.43Q28.47-16.85 28.44-16.63 28.42-16.41 28.17-16.31L28.17-16.31Q28.17-16.16 28.08-16.02 27.98-15.87 27.88-15.77L27.88-15.77Q27.69-15.43 27.69-15.38 27.69-15.33 27.64-15.23L27.64-15.23Q27.29-14.89 27.25-14.84L27.25-14.84Q26.86-14.36 26.66-14.16L26.66-14.16 26.32-13.67 25.93-13.23Q25.29-12.84 25.15-12.65L25.15-12.65Q24.85-12.4 24.78-12.33 24.71-12.26 24.61-12.16L24.61-12.16Q24.17-11.77 24.05-11.72 23.93-11.67 23.88-11.52L23.88-11.52Q23.39-11.28 23.24-11.18 23.1-11.08 23-10.99L23-10.99Q22.8-10.99 22.68-10.91 22.56-10.84 22.41-10.79L22.41-10.79Q22.02-10.74 21.78-10.5L21.78-10.5Q21.29-10.35 21.19-10.35 21.09-10.35 21-10.3L21-10.3Q20.56-10.11 20.31-10.03 20.07-9.96 19.92-9.77L19.92-9.77Q19.48-9.72 19.38-9.72 19.29-9.72 19.29-9.62L19.29-9.62Q18.9-9.62 18.87-9.64 18.85-9.67 18.75-9.67L18.75-9.67Q18.12-9.57 17.82-9.47L17.82-9.47Q17.58-9.47 17.36-9.5 17.14-9.52 16.99-9.42L16.99-9.42Q16.5-9.23 16.43-9.23 16.36-9.23 16.21-9.18L16.21-9.18Q15.58-9.08 15.48-9.08L15.48-9.08Q15.28-9.08 15.14-9.01 14.99-8.94 14.84-8.98L14.84-8.98Q14.45-8.94 14.26-8.89 14.06-8.84 13.96-8.79L13.96-8.79Q13.77-8.84 13.33-8.79 12.89-8.74 12.65-8.64L12.65-8.64ZM12.84-14.06L12.84-14.06Q13.67-14.16 13.82-14.21L13.82-14.21 14.7-14.36Q15.23-14.7 15.23-14.7L15.23-14.7Q15.58-14.84 15.7-14.87 15.82-14.89 15.87-14.94L15.87-14.94Q16.26-15.33 16.33-15.41 16.41-15.48 16.46-15.72L16.46-15.72Q16.99-15.97 16.92-16.02 16.85-16.06 16.94-16.11L16.94-16.11Q17.38-16.5 17.63-16.55L17.63-16.55Q18.07-16.94 18.09-16.99 18.12-17.04 18.21-17.14L18.21-17.14Q18.6-17.58 18.65-17.6 18.7-17.63 18.75-17.68L18.75-17.68Q19.14-18.07 19.14-18.16L19.14-18.16Q19.24-18.31 19.53-18.6L19.53-18.6Q20.02-18.85 20.09-18.97 20.17-19.09 20.26-19.19L20.26-19.19Q20.7-19.63 20.78-19.75 20.85-19.87 20.9-19.97L20.9-19.97Q21.14-20.41 21.19-20.51L21.19-20.51Q21.39-20.8 21.39-20.92 21.39-21.04 21.44-21.19L21.44-21.19Q21.48-21.34 21.53-21.46 21.58-21.58 21.58-21.73L21.58-21.73Q21.63-21.97 21.61-22.19 21.58-22.41 21.58-22.66L21.58-22.66Q21.68-23.05 21.68-23.24L21.68-23.24Q21.68-23.39 21.63-23.54 21.58-23.68 21.53-23.78L21.53-23.78Q21.48-24.02 21.44-24.15 21.39-24.27 21.39-24.41L21.39-24.41Q21.09-24.95 21.04-24.98 21-25 21-25.1L21-25.1 20.65-25.59Q20.36-25.98 20.31-26.07 20.26-26.17 20.17-26.22L20.17-26.22Q20.02-26.51 20-26.61 19.97-26.71 19.92-26.76L19.92-26.76Q19.53-27.1 19.43-27.15L19.43-27.15Q19.19-27.59 19.14-27.64L19.14-27.64Q18.95-27.88 18.82-28 18.7-28.13 18.6-28.37L18.6-28.37Q18.31-28.42 18.16-28.76L18.16-28.76Q17.82-28.96 17.75-28.98 17.68-29 17.63-29.05L17.63-29.05Q17.33-29.39 17.19-29.49 17.04-29.59 16.99-29.74L16.99-29.74Q16.8-29.74 16.7-29.88 16.6-30.03 16.5-29.98L16.5-29.98 16.02-30.42Q15.58-30.71 15.5-30.71 15.43-30.71 15.33-30.76L15.33-30.76Q14.7-31.4 13.94-31.37 13.18-31.35 12.7-31.49L12.7-31.49Q12.3-31.25 12.26-31.23 12.21-31.2 12.21-31.15L12.21-31.15Q12.11-30.86 12.13-30.69 12.16-30.52 12.16-30.32L12.16-30.32Q12.16-29.79 12.18-29.64 12.21-29.49 12.21-29.35L12.21-29.35Q12.16-28.76 12.11-28.69 12.06-28.61 12.06-28.52L12.06-28.52Q12.06-27.93 12.11-27.51 12.16-27.1 12.06-26.95L12.06-26.95Q12.06-26.42 12.06-26.27L12.06-26.27Q12.11-25.73 12.08-25.71 12.06-25.68 12.06-25.63L12.06-25.63Q12.11-25.29 12.01-25.1L12.01-25.1 12.01-23.88Q12.06-23.58 12.01-23.19 11.96-22.8 11.91-22.41L11.91-22.41 11.91-21.53Q11.82-20.85 11.77-20.48 11.72-20.12 11.82-19.87L11.82-19.87 11.82-19.24Q11.91-18.65 11.82-18.21L11.82-18.21Q11.82-17.92 11.79-17.6 11.77-17.29 11.82-16.99L11.82-16.99Q11.82-16.75 11.87-16.55 11.91-16.36 11.91-16.11L11.91-16.11 11.91-15.48Q11.96-15.09 12.01-14.75 12.06-14.4 12.01-14.01L12.01-14.01Q12.26-13.92 12.45-13.96 12.65-14.01 12.84-14.06ZM54.69-36.28L54.69-36.28Q55.03-35.94 55.03-35.84 55.03-35.74 55.08-35.64L55.08-35.64Q55.17-35.3 55.15-34.96 55.12-34.62 55.08-34.13L55.08-34.13Q55.03-33.89 55.05-33.69 55.08-33.5 55.03-33.35L55.03-33.35Q54.98-33.2 54.9-33.08 54.83-32.96 54.78-32.86L54.78-32.86Q54.73-32.52 54.76-32.37 54.78-32.23 54.73-32.13L54.73-32.13Q54.59-31.69 54.64-31.52 54.69-31.35 54.69-31.15L54.69-31.15Q54.69-30.57 54.56-30.49 54.44-30.42 54.44-30.32L54.44-30.32Q54.54-30.08 54.49-29.93 54.44-29.79 54.39-29.54L54.39-29.54Q54.29-29 54.22-28.83 54.15-28.66 54.1-28.47L54.1-28.47Q53.9-28.13 53.83-28.08 53.76-28.03 53.71-27.93L53.71-27.93Q53.22-27.83 53.07-27.86 52.93-27.88 52.78-27.88L52.78-27.88Q52.19-27.88 52.07-27.95 51.95-28.03 51.8-28.08L51.8-28.08Q51.66-28.17 51.49-28.13 51.32-28.08 51.12-28.17L51.12-28.17Q50.68-28.27 50.41-28.25 50.14-28.22 49.85-28.22L49.85-28.22Q49.61-28.22 49.39-28.25 49.17-28.27 48.92-28.37L48.92-28.37Q48.78-28.27 48.58-28.32 48.39-28.37 48.14-28.37L48.14-28.37Q48-28.42 47.82-28.37 47.65-28.32 47.46-28.37L47.46-28.37Q47.36-28.08 47.39-27.81 47.41-27.54 47.41-27.25L47.41-27.25Q47.36-26.71 47.36-26.71L47.36-26.71 47.46-26.07Q47.46-25.93 47.48-25.78 47.51-25.63 47.51-25.49L47.51-25.49Q47.51-25.24 47.46-24.95 47.41-24.66 47.41-24.41L47.41-24.41 47.56-23.54Q47.56-23.14 47.48-22.83 47.41-22.51 47.51-22.22L47.51-22.22Q47.46-21.68 47.56-21.39L47.56-21.39Q47.56-21.14 47.53-20.95 47.51-20.75 47.56-20.61L47.56-20.61Q47.46-20.02 47.51-19.82 47.56-19.63 47.56-19.53L47.56-19.53Q47.56-19.38 47.51-19.24 47.46-19.09 47.46-18.95L47.46-18.95Q47.46-18.46 47.51-18.33 47.56-18.21 47.46-18.12L47.46-18.12Q47.56-17.77 47.56-17.48 47.56-17.19 47.6-16.85L47.6-16.85Q47.65-16.46 47.7-16.41 47.75-16.36 47.75-16.31L47.75-16.31Q47.7-16.02 47.8-15.72L47.8-15.72 47.8-15.09Q47.8-14.7 47.78-14.31 47.75-13.92 47.8-13.48L47.8-13.48Q47.8-13.23 47.78-13.06 47.75-12.89 47.85-12.74L47.85-12.74Q47.85-12.26 47.82-12.21 47.8-12.16 47.8-12.06L47.8-12.06Q47.9-11.43 47.8-10.5L47.8-10.5 47.85-9.57 47.85-9.03Q47.85-8.69 47.87-8.37 47.9-8.06 47.9-7.71L47.9-7.71Q47.95-6.93 48-6.79L48-6.79Q48.04-6.2 48.02-6.05 48-5.91 48-5.81L48-5.81Q48.04-5.57 48.04-5.35 48.04-5.13 48.09-4.93L48.09-4.93Q48.14-4.35 48.17-4.22 48.19-4.1 48.19-3.91L48.19-3.91 48.24-3.22Q48.29-2.49 48.34-2.29L48.34-2.29Q48.53-1.66 48.44-1.46L48.44-1.46Q48.44-1.22 48.48-1.12 48.53-1.03 48.58-0.93L48.58-0.93Q48.48-0.49 48.51-0.39 48.53-0.29 48.53-0.15L48.53-0.15Q48.14 0.2 48.02 0.22 47.9 0.24 47.8 0.24L47.8 0.24 47.02 0.24Q46.68 0.29 46.04 0.24L46.04 0.24 45.16 0.24Q44.68 0.29 44.63 0.27 44.58 0.24 44.48 0.24L44.48 0.24Q44.09 0.24 43.94 0.27 43.8 0.29 43.65 0.29L43.65 0.29Q43.02 0.34 42.89 0.37 42.77 0.39 42.62 0.44L42.62 0.44Q42.14 0.44 42.06 0.46 41.99 0.49 41.84 0.44L41.84 0.44Q41.6 0.39 41.5 0.39 41.4 0.39 41.31 0.39L41.31 0.39Q41.06 0.39 40.89 0.42 40.72 0.44 40.48 0.44L40.48 0.44Q39.94 0.39 39.77 0.42 39.6 0.44 39.4 0.34L39.4 0.34Q39.06 0.24 38.91 0.1L38.91 0.1Q38.72-0.24 38.64-0.32 38.57-0.39 38.47-0.54L38.47-0.54Q38.52-0.63 38.47-0.78 38.43-0.93 38.43-1.12L38.43-1.12Q38.43-1.37 38.47-1.66 38.52-1.95 38.52-2.25L38.52-2.25Q38.57-2.54 38.55-2.61 38.52-2.69 38.57-2.78L38.57-2.78Q38.52-2.98 38.57-3.1 38.62-3.22 38.62-3.32L38.62-3.32Q38.67-3.61 38.67-3.91 38.67-4.2 38.72-4.49L38.72-4.49Q38.86-5.08 38.82-5.27 38.77-5.47 38.82-5.66L38.82-5.66Q38.91-6.15 38.89-6.18 38.86-6.2 38.86-6.25L38.86-6.25Q38.86-6.79 38.91-6.84 38.96-6.88 38.96-6.93L38.96-6.93Q38.96-7.03 38.99-7.23 39.01-7.42 39.01-7.67L39.01-7.67Q39.11-8.35 39.11-8.5L39.11-8.5Q39.06-8.98 39.08-8.98 39.11-8.98 39.11-9.03L39.11-9.03Q39.11-9.28 39.11-9.38 39.11-9.47 39.16-9.57L39.16-9.57Q39.16-9.91 39.18-9.99 39.21-10.06 39.21-10.16L39.21-10.16Q39.11-10.74 39.13-10.86 39.16-10.99 39.16-11.18L39.16-11.18Q39.06-11.96 39.16-12.35L39.16-12.35Q39.11-12.65 39.13-12.74 39.16-12.84 39.16-12.94L39.16-12.94Q39.16-13.09 39.13-13.23 39.11-13.38 39.16-13.62L39.16-13.62Q39.16-14.16 39.18-14.43 39.21-14.7 39.21-15.04L39.21-15.04Q39.11-15.72 39.08-15.87 39.06-16.02 39.11-16.16L39.11-16.16Q39.11-16.89 39.13-17.14 39.16-17.38 39.16-17.63L39.16-17.63Q39.16-18.02 39.13-18.33 39.11-18.65 39.16-19.04L39.16-19.04Q39.16-19.24 39.23-19.34 39.3-19.43 39.26-19.68L39.26-19.68Q39.3-19.82 39.28-20.29 39.26-20.75 39.26-21L39.26-21Q39.3-21.24 39.35-21.39 39.4-21.53 39.35-21.83L39.35-21.83Q39.35-22.12 39.35-22.24 39.35-22.36 39.35-22.51L39.35-22.51Q39.4-23.14 39.35-23.39 39.3-23.63 39.3-23.88L39.3-23.88Q39.3-24.12 39.33-24.29 39.35-24.46 39.35-24.61L39.35-24.61Q39.35-25 39.35-25.42 39.35-25.83 39.26-26.22L39.26-26.22Q39.26-26.71 39.28-26.83 39.3-26.95 39.26-27.2L39.26-27.2Q39.26-27.44 39.23-27.66 39.21-27.88 39.21-28.17L39.21-28.17Q38.67-28.08 38.43-28.08L38.43-28.08Q38.18-28.03 37.96-28 37.74-27.98 37.5-27.93L37.5-27.93Q36.96-27.88 36.96-27.91 36.96-27.93 36.91-27.93L36.91-27.93Q36.52-27.78 36.42-27.78 36.33-27.78 36.18-27.73L36.18-27.73Q35.74-27.69 35.62-27.64 35.5-27.59 35.4-27.59L35.4-27.59Q35.15-27.54 34.93-27.56 34.71-27.59 34.47-27.49L34.47-27.49 33.93-27.39Q33.49-27.39 33.42-27.42 33.35-27.44 33.25-27.39L33.25-27.39Q32.71-27.25 32.64-27.2 32.57-27.15 32.47-27.1L32.47-27.1Q32.08-27.15 32.03-27.12 31.98-27.1 31.93-27.1L31.93-27.1Q31.54-27.25 31.54-27.32 31.54-27.39 31.44-27.34L31.44-27.34Q31.39-27.54 31.3-27.73 31.2-27.93 31.15-28.17L31.15-28.17Q31.1-28.42 31.17-28.71 31.25-29 31.3-29.3L31.3-29.3Q31.35-29.64 31.35-29.83L31.35-29.83Q31.39-30.27 31.49-30.47L31.49-30.47Q31.44-30.96 31.44-31.13 31.44-31.3 31.49-31.45L31.49-31.45Q31.59-31.98 31.74-32.08L31.74-32.08Q31.74-32.71 31.78-32.91L31.78-32.91Q31.93-33.3 31.91-33.47 31.88-33.64 31.93-33.84L31.93-33.84Q31.93-34.03 31.98-34.18 32.03-34.33 32.03-34.57L32.03-34.57Q32.08-34.91 32.1-35.25 32.13-35.6 32.18-35.84L32.18-35.84Q32.27-35.94 32.37-36.04 32.47-36.13 32.57-36.28L32.57-36.28Q33.1-36.38 33.1-36.38L33.1-36.38Q33.69-36.38 34.15-36.35 34.62-36.33 35.15-36.28L35.15-36.28Q35.79-36.13 36.03-36.16 36.28-36.18 36.52-36.23L36.52-36.23Q36.81-36.28 37.13-36.23 37.45-36.18 37.64-36.23L37.64-36.23Q37.74-36.23 38.01-36.21 38.28-36.18 38.47-36.28L38.47-36.28Q38.57-36.23 38.72-36.25 38.86-36.28 39.01-36.28L39.01-36.28Q39.21-36.23 39.65-36.23L39.65-36.23Q39.99-36.18 40.26-36.18 40.52-36.18 40.72-36.08L40.72-36.08Q41.16-36.13 41.28-36.13 41.4-36.13 41.5-36.08L41.5-36.08Q42.14-36.08 42.28-36.11 42.43-36.13 42.58-36.13L42.58-36.13Q42.77-36.13 43.16-36.04L43.16-36.04Q43.89-36.13 44.11-36.11 44.33-36.08 44.58-36.08L44.58-36.08Q44.72-36.08 44.87-36.11 45.02-36.13 45.26-36.08L45.26-36.08Q45.55-35.99 45.63-36.04 45.7-36.08 45.8-36.04L45.8-36.04Q46.09-36.04 46.48-36.01 46.87-35.99 47.17-36.04L47.17-36.04Q47.6-36.04 47.95-36.08 48.29-36.13 48.63-36.08L48.63-36.08Q49.36-36.13 49.66-36.06 49.95-35.99 50.34-36.04L50.34-36.04 50.88-36.13Q50.97-36.18 51.19-36.21 51.41-36.23 51.66-36.28L51.66-36.28Q52.29-36.23 52.44-36.3 52.59-36.38 52.88-36.33L52.88-36.33Q53.61-36.38 53.95-36.28 54.29-36.18 54.69-36.28ZM70.5-13.67L70.16-13.48Q69.82-14.01 69.97-14.45L69.97-14.45Q70.31-15.09 70.36-15.09L70.36-15.09Q70.55-15.58 70.67-15.75 70.8-15.92 70.75-16.26L70.75-16.26Q70.89-16.36 70.97-16.55 71.04-16.75 71.14-16.85L71.14-16.85Q71.33-17.19 71.36-17.43 71.38-17.68 71.48-17.92L71.48-17.92Q71.58-18.12 71.65-18.21 71.72-18.31 71.82-18.41L71.82-18.41Q72.02-18.75 72.21-19.04L72.21-19.04Q72.31-19.14 72.33-19.29 72.36-19.43 72.46-19.58L72.46-19.58Q72.55-19.68 72.63-19.82 72.7-19.97 72.75-20.12L72.75-20.12Q73.19-20.21 73.36-20.29 73.53-20.36 73.68-20.36L73.68-20.36Q73.82-20.41 74.21-20.31L74.21-20.31Q74.36-20.36 74.6-20.34 74.85-20.31 74.95-20.21L74.95-20.21Q75.53-20.07 75.56-20.09 75.58-20.12 75.63-20.12L75.63-20.12Q75.87-20.02 76.04-20.04 76.22-20.07 76.41-20.07L76.41-20.07Q77-20.17 77.56-20.07 78.12-19.97 78.56-20.21L78.56-20.21Q79.05-20.17 79.19-20.14 79.34-20.12 79.49-20.12L79.49-20.12Q80.17-20.17 80.27-20.12L80.27-20.12Q80.76-20.12 80.78-20.09 80.81-20.07 80.85-20.07L80.85-20.07Q81.1-20.07 81.2-20 81.29-19.92 81.39-20.02L81.39-20.02Q81.98-19.87 81.95-19.75 81.93-19.63 82.03-19.58L82.03-19.58Q82.17-19.48 82.32-19.41 82.47-19.34 82.66-19.24L82.66-19.24Q82.76-19.09 82.91-18.97 83.05-18.85 83.15-18.7L83.15-18.7Q83.2-18.31 83.27-17.97 83.34-17.63 83.34-17.24L83.34-17.24Q83.34-17.09 83.34-16.89 83.34-16.7 83.3-16.46L83.3-16.46Q83.3-16.26 83.27-16.09 83.25-15.92 83.39-15.77L83.39-15.77Q83.25-15.28 83.27-15.21 83.3-15.14 83.3-15.09L83.3-15.09Q83.25-14.75 83.27-14.65 83.3-14.55 83.3-14.45L83.3-14.45 83.3-13.87Q83.34-13.62 83.3-13.28 83.25-12.94 83.3-12.6L83.3-12.6Q83.39-12.3 83.37-12.23 83.34-12.16 83.34-12.06L83.34-12.06Q83.34-11.67 83.42-11.28 83.49-10.89 83.44-10.45L83.44-10.45Q83.39-10.21 83.42-9.99 83.44-9.77 83.44-9.52L83.44-9.52Q83.44-9.33 83.42-9.16 83.39-8.98 83.39-8.84L83.39-8.84Q83.44-8.3 83.44-8.01 83.44-7.71 83.49-7.57L83.49-7.57Q83.64-7.08 83.59-7.06 83.54-7.03 83.54-6.93L83.54-6.93Q83.64-6.49 83.61-6.3 83.59-6.1 83.59-5.96L83.59-5.96Q83.59-5.52 83.56-5.3 83.54-5.08 83.49-4.83L83.49-4.83Q83.54-4.35 83.52-4.25 83.49-4.15 83.49-4.05L83.49-4.05Q83.54-3.56 83.52-3.52 83.49-3.47 83.49-3.42L83.49-3.42 83.54-2.88Q83.64-2.29 83.64-2.25 83.64-2.2 83.69-2.15L83.69-2.15Q83.88-1.37 83.69-0.54L83.69-0.54Q83.15-0.05 83.1 0.15L83.1 0.15Q82.76 0.24 82.56 0.34L82.56 0.34Q82.27 0.29 82.1 0.34 81.93 0.39 81.78 0.44L81.78 0.44Q81.54 0.34 81.29 0.39 81.05 0.44 80.81 0.49L80.81 0.49Q80.61 0.49 80.39 0.49 80.17 0.49 80.07 0.59L80.07 0.59Q79.73 0.63 79.41 0.66 79.1 0.68 78.85 0.73L78.85 0.73Q78.56 0.73 78.32 0.73L78.32 0.73Q77.97 0.73 77.63 0.76 77.29 0.78 76.95 0.73L76.95 0.73Q76.41 0.68 76.36 0.71 76.31 0.73 76.22 0.73L76.22 0.73Q75.63 0.63 75.53 0.54L75.53 0.54Q75.34 0.54 75.21 0.56 75.09 0.59 75 0.59L75 0.59Q74.75 0.49 74.63 0.51 74.51 0.54 74.41 0.44L74.41 0.44Q74.26 0.54 74.14 0.49 74.02 0.44 73.82 0.44L73.82 0.44Q73.19 0.44 72.9 0.32 72.6 0.2 72.26 0.29L72.26 0.29Q72.07 0.15 71.72 0.15 71.38 0.15 71.14 0.15L71.14 0.15Q70.94 0.05 70.6 0.02 70.26 0 69.97-0.1L69.97-0.1Q69.82-0.15 69.65-0.2 69.48-0.24 69.33-0.29L69.33-0.29Q68.79-0.34 68.79-0.39L68.79-0.39Q68.21-0.59 68.06-0.73L68.06-0.73Q67.52-0.83 67.43-0.88L67.43-0.88Q67.18-1.03 67.11-1.12 67.04-1.22 66.79-1.17L66.79-1.17Q66.69-1.42 66.47-1.46 66.25-1.51 66.01-1.61L66.01-1.61 65.52-1.95Q65.08-2.25 64.94-2.25L64.94-2.25Q64.4-2.54 64.3-2.71 64.2-2.88 64.11-2.98L64.11-2.98Q63.62-3.27 63.47-3.44 63.33-3.61 63.03-3.71L63.03-3.71Q62.74-4.05 62.64-4.15 62.54-4.25 62.4-4.25L62.4-4.25Q62.35-4.39 62.23-4.52 62.1-4.64 62.01-4.79L62.01-4.79Q61.66-5.13 61.57-5.22 61.47-5.32 61.37-5.47L61.37-5.47Q61.03-6.01 60.98-6.01 60.93-6.01 60.88-6.1L60.88-6.1Q60.59-6.54 60.57-6.62 60.54-6.69 60.44-6.79L60.44-6.79Q60.1-7.23 60.1-7.32L60.1-7.32Q59.91-7.71 59.79-7.89 59.66-8.06 59.57-8.3L59.57-8.3Q59.27-8.69 59.25-8.76 59.22-8.84 59.17-8.94L59.17-8.94Q58.93-9.42 58.81-9.62 58.69-9.81 58.64-10.06L58.64-10.06Q58.3-10.6 58.27-10.74 58.25-10.89 58.2-10.99L58.2-10.99 58.05-11.52 57.81-12.06Q57.76-12.55 57.71-12.94L57.71-12.94Q57.56-13.53 57.49-13.67 57.42-13.82 57.42-14.01L57.42-14.01Q57.32-14.5 57.32-14.55L57.32-14.55Q57.32-15.28 57.25-15.7 57.17-16.11 57.27-16.55L57.27-16.55Q57.22-17.14 57.25-17.19 57.27-17.24 57.27-17.33L57.27-17.33Q57.27-17.43 57.22-17.58 57.17-17.72 57.17-17.87L57.17-17.87Q57.12-18.21 57.22-18.41L57.22-18.41Q57.12-18.8 57.2-19.29 57.27-19.78 57.42-20.12L57.42-20.12Q57.32-20.21 57.34-20.39 57.37-20.56 57.27-20.75L57.27-20.75Q57.37-20.9 57.42-21.12 57.47-21.34 57.47-21.53L57.47-21.53Q57.66-22.31 57.86-22.66L57.86-22.66Q57.86-22.95 57.93-23.19 58-23.44 58.05-23.68L58.05-23.68Q58.2-24.17 58.25-24.51L58.25-24.51Q58.44-25.24 58.59-25.51 58.74-25.78 58.83-26.12L58.83-26.12Q58.98-26.51 59.13-26.54 59.27-26.56 59.13-26.66L59.13-26.66Q59.52-27.25 59.52-27.25L59.52-27.25Q59.61-27.44 59.64-27.56 59.66-27.69 59.71-27.78L59.71-27.78Q60-28.17 59.98-28.2 59.96-28.22 60-28.27L60-28.27Q60.25-28.76 60.44-28.76L60.44-28.76Q60.59-29.1 60.62-29.17 60.64-29.25 60.74-29.35L60.74-29.35Q60.98-29.74 61.03-29.74 61.08-29.74 61.08-29.79L61.08-29.79 61.47-30.18Q61.91-30.71 62.06-30.86 62.2-31.01 62.3-31.2L62.3-31.2Q62.69-31.54 62.71-31.57 62.74-31.59 62.79-31.59L62.79-31.59Q63.28-32.03 63.4-32.23 63.52-32.42 63.72-32.57L63.72-32.57Q64.3-32.91 64.47-33.06 64.64-33.2 64.84-33.35L64.84-33.35 65.57-33.74Q65.77-33.89 65.89-33.91 66.01-33.94 66.01-34.08L66.01-34.08Q66.16-33.98 66.3-34.06 66.45-34.13 66.55-34.23L66.55-34.23Q66.99-34.47 67.23-34.59 67.48-34.72 67.67-34.81L67.67-34.81Q68.06-35.01 68.16-35.06 68.26-35.11 68.35-35.16L68.35-35.16Q69.04-35.45 69.28-35.5 69.53-35.55 69.67-35.69L69.67-35.69Q70.16-35.79 70.45-35.89L70.45-35.89Q70.84-35.99 71.09-36.04L71.09-36.04Q71.53-36.18 71.65-36.25 71.77-36.33 71.92-36.38L71.92-36.38Q72.36-36.38 72.41-36.4 72.46-36.43 72.55-36.43L72.55-36.43Q73.04-36.62 73.26-36.6 73.48-36.57 73.73-36.67L73.73-36.67Q74.02-36.62 74.09-36.65 74.16-36.67 74.26-36.67L74.26-36.67Q74.7-36.72 74.9-36.62L74.9-36.62Q75.43-36.67 75.46-36.65 75.48-36.62 75.53-36.62L75.53-36.62Q75.68-36.57 75.83-36.55 75.97-36.52 76.07-36.38L76.07-36.38Q76.26-36.47 76.39-36.45 76.51-36.43 76.7-36.43L76.7-36.43Q77.29-36.47 77.63-36.38L77.63-36.38Q78.41-36.18 78.66-36.23L78.66-36.23 79.24-35.74Q79.63-35.35 79.78-35.23 79.93-35.11 80.02-34.91L80.02-34.91 80.12-34.38Q80.32-33.84 80.34-33.79 80.37-33.74 80.32-33.64L80.32-33.64Q80.56-33.3 80.63-32.79 80.71-32.28 80.95-31.88L80.95-31.88Q81.05-31.45 81.07-31.3 81.1-31.15 81.2-31.01L81.2-31.01Q81.39-30.76 81.42-30.49 81.44-30.22 81.68-29.98L81.68-29.98Q81.73-29.35 81.76-29.2 81.78-29.05 81.73-28.91L81.73-28.91Q81.68-28.76 81.54-28.66 81.39-28.56 81.29-28.47L81.29-28.47Q80.85-28.47 80.59-28.56 80.32-28.66 79.93-28.66L79.93-28.66Q79.49-28.86 79.39-28.93 79.29-29 79.19-29L79.19-29Q78.61-29 78.49-28.98 78.36-28.96 78.27-28.96L78.27-28.96Q78.07-28.96 77.92-29 77.78-29.05 77.58-29L77.58-29Q77.09-29.05 76.92-29 76.75-28.96 76.56-28.96L76.56-28.96Q76.12-29 76-28.93 75.87-28.86 75.73-28.86L75.73-28.86Q75.43-28.86 75.26-28.81 75.09-28.76 75-28.76L75-28.76Q74.51-28.71 74.46-28.66 74.41-28.61 74.31-28.61L74.31-28.61Q74.16-28.56 73.97-28.56 73.77-28.56 73.63-28.42L73.63-28.42Q73.09-28.42 72.6-28.03L72.6-28.03Q71.97-27.78 71.58-27.59L71.58-27.59Q71.43-27.49 71.21-27.42 70.99-27.34 70.8-27.25L70.8-27.25Q70.41-26.95 70.33-26.93 70.26-26.9 70.16-26.86L70.16-26.86Q69.82-26.56 69.75-26.59 69.67-26.61 69.62-26.46L69.62-26.46Q69.18-26.17 69.14-26.15 69.09-26.12 68.99-26.17L68.99-26.17Q68.84-25.83 68.65-25.63L68.65-25.63Q68.5-25.49 68.21-25.29L68.21-25.29Q67.82-24.9 67.72-24.76L67.72-24.76 67.28-24.32Q67.13-23.83 67.16-23.71 67.18-23.58 67.13-23.49L67.13-23.49Q66.94-23.14 66.87-23 66.79-22.85 66.69-22.66L66.69-22.66Q66.55-22.41 66.4-22.14 66.25-21.88 66.21-21.44L66.21-21.44Q65.96-21 65.99-20.87 66.01-20.75 65.96-20.61L65.96-20.61Q65.77-20.02 65.72-19.85 65.67-19.68 65.77-19.48L65.77-19.48Q65.67-19.34 65.67-19.21 65.67-19.09 65.62-18.85L65.62-18.85Q65.57-18.36 65.6-18.31 65.62-18.26 65.57-18.16L65.57-18.16Q65.57-17.68 65.57-17.63L65.57-17.63Q65.57-17.14 65.6-17.09 65.62-17.04 65.62-16.94L65.62-16.94Q65.67-16.5 65.72-16.33 65.77-16.16 65.82-15.92L65.82-15.92Q65.86-15.77 65.86-15.58 65.86-15.38 65.91-15.28L65.91-15.28Q65.96-15.09 66.04-14.92 66.11-14.75 66.16-14.55L66.16-14.55Q66.3-13.96 66.4-13.62 66.5-13.28 66.6-12.89L66.6-12.89Q66.89-12.16 67.01-11.99 67.13-11.82 67.23-11.57L67.23-11.57Q67.43-11.23 67.48-11.21 67.52-11.18 67.57-11.13L67.57-11.13 67.82-10.64Q67.91-10.55 67.96-10.38 68.01-10.21 68.11-10.11L68.11-10.11 68.45-9.67Q68.75-9.28 68.84-9.18L68.84-9.18Q68.94-9.08 69.09-8.96 69.23-8.84 69.33-8.64L69.33-8.64Q69.82-8.35 69.82-8.35L69.82-8.35Q70.16-8.15 70.26-8.08 70.36-8.01 70.41-8.01L70.41-8.01Q70.8-7.81 70.94-7.67 71.09-7.52 71.28-7.37L71.28-7.37 71.87-7.18Q72.31-6.93 72.41-6.96 72.5-6.98 72.6-6.88L72.6-6.88Q72.85-6.88 73.02-6.84 73.19-6.79 73.53-6.74L73.53-6.74Q73.73-6.69 73.85-6.71 73.97-6.74 74.07-6.74L74.07-6.74Q74.51-6.69 74.68-6.64 74.85-6.59 75.04-6.74L75.04-6.74Q75.14-6.64 75.31-6.64 75.48-6.64 75.63-6.64L75.63-6.64Q76.22-6.64 76.41-6.74L76.41-6.74Q76.61-7.32 76.7-7.37L76.7-7.37Q76.61-8.01 76.61-8.01L76.61-8.01Q76.61-8.15 76.58-8.33 76.56-8.5 76.56-8.59L76.56-8.59Q76.56-8.84 76.58-8.94 76.61-9.03 76.56-9.23L76.56-9.23 76.51-9.81Q76.46-10.21 76.41-10.33 76.36-10.45 76.36-10.55L76.36-10.55Q76.51-11.33 76.51-11.57L76.51-11.57Q76.36-12.16 76.36-12.45L76.36-12.45Q76.31-12.79 76.26-12.94 76.22-13.09 75.92-13.18L75.92-13.18Q75.48-13.62 75.34-13.55 75.19-13.48 75.09-13.48L75.09-13.48Q74.95-13.48 74.82-13.53 74.7-13.57 74.56-13.57L74.56-13.57Q74.41-13.57 74.26-13.5 74.12-13.43 73.97-13.43L73.97-13.43Q73.82-13.43 73.63-13.5 73.43-13.57 73.19-13.62L73.19-13.62Q72.99-13.62 72.82-13.67 72.65-13.72 72.46-13.72L72.46-13.72Q71.67-13.57 71.31-13.62 70.94-13.67 70.5-13.67L70.5-13.67ZM109.27-7.86L109.27-7.86Q108.78-7.71 108.76-7.67 108.73-7.62 108.64-7.57L108.64-7.57 108.2-7.18Q107.71-6.84 107.71-6.84L107.71-6.84Q107.37-6.59 107.22-6.49L107.22-6.49Q107.12-6.4 107.02-6.3 106.93-6.2 106.83-6.1L106.83-6.1Q106.39-5.66 106.34-5.62 106.29-5.57 106.19-5.52L106.19-5.52Q105.9-5.37 105.75-5.13L105.75-5.13Q105.17-4.74 105.02-4.69L105.02-4.69Q104.48-4.35 104.46-4.3 104.44-4.25 104.34-4.2L104.34-4.2Q103.8-4 103.68-4 103.56-4 103.46-3.96L103.46-3.96Q102.68-3.56 102.19-3.66L102.19-3.66Q101.8-3.76 101.51-3.96L101.51-3.96Q101.12-4.15 100.94-4.2 100.77-4.25 100.63-4.35L100.63-4.35Q100.33-4.64 100.24-4.71 100.14-4.79 100.04-4.88L100.04-4.88Q99.8-5.13 99.41-5.13L99.41-5.13Q98.97-5.57 98.85-5.59 98.72-5.62 98.58-5.71L98.58-5.71Q98.28-5.96 98.14-6.1L98.14-6.1Q97.8-6.45 97.65-6.59L97.65-6.59Q97.36-7.03 97.26-7.13 97.16-7.23 97.06-7.32L97.06-7.32Q96.53-7.42 96.55-7.3 96.57-7.18 96.53-7.08L96.53-7.08Q96.48-6.98 96.43-6.84 96.38-6.69 96.33-6.54L96.33-6.54Q96.18-6.01 96.18-5.96L96.18-5.96Q95.99-5.42 95.96-5.4 95.94-5.37 95.94-5.27L95.94-5.27 95.79-4.69Q95.74-4.1 95.7-3.96L95.7-3.96Q95.65-3.32 95.45-2.98L95.45-2.98Q95.26-2.34 95.21-2.29L95.21-2.29 95.11-1.76Q95.06-1.37 95.04-1.22 95.01-1.07 95.01-0.88L95.01-0.88Q94.87-0.44 94.67-0.24L94.67-0.24Q94.52 0.15 94.55 0.2 94.57 0.24 94.52 0.29L94.52 0.29Q94.28 0.49 94.18 0.61 94.08 0.73 93.99 0.83L93.99 0.83Q93.64 0.93 93.35 0.88L93.35 0.88Q92.62 0.83 92.13 0.73L92.13 0.73Q91.89 0.63 91.62 0.51 91.35 0.39 91.06 0.29L91.06 0.29Q90.37 0 90.32 0L90.32 0Q89.89-0.1 89.81-0.15 89.74-0.2 89.64-0.24L89.64-0.24Q89.15-0.39 89.1-0.46 89.06-0.54 89.01-0.44L89.01-0.44Q88.37-0.63 88.2-0.61 88.03-0.59 87.93-0.68L87.93-0.68Q87.54-1.03 87.47-1.1 87.39-1.17 87.2-1.17L87.2-1.17Q86.81-1.51 86.56-1.66L86.56-1.66Q86.32-2.05 86.05-2.22 85.78-2.39 85.78-2.83L85.78-2.83Q85.78-3.08 85.83-3.22 85.88-3.37 85.98-3.56L85.98-3.56Q86.17-4 86.22-4.13 86.27-4.25 86.37-4.39L86.37-4.39Q86.56-4.79 86.66-4.93L86.66-4.93Q86.76-5.08 86.81-5.25 86.86-5.42 86.96-5.52L86.96-5.52Q87.05-5.76 87.1-6.03 87.15-6.3 87.39-6.45L87.39-6.45Q87.54-7.03 87.69-7.18L87.69-7.18Q87.64-7.32 87.76-7.59 87.88-7.86 87.93-7.96L87.93-7.96Q88.22-8.64 88.4-8.96 88.57-9.28 88.71-9.67L88.71-9.67Q88.96-10.21 89.01-10.3 89.06-10.4 89.1-10.5L89.1-10.5Q89.3-10.99 89.3-11.01 89.3-11.04 89.35-11.08L89.35-11.08Q89.49-11.33 89.54-11.52 89.59-11.72 89.69-11.87L89.69-11.87Q89.79-12.11 89.93-12.45 90.08-12.79 90.23-13.09L90.23-13.09Q90.42-13.62 90.52-13.62L90.52-13.62Q90.62-14.06 90.67-14.09 90.72-14.11 90.76-14.21L90.76-14.21Q90.91-14.75 90.93-14.84 90.96-14.94 91.01-15.04L91.01-15.04Q91.06-15.28 91.11-15.5 91.15-15.72 91.2-15.92L91.2-15.92Q91.35-16.36 91.55-16.75L91.55-16.75Q91.64-16.89 91.72-17.09 91.79-17.29 91.94-17.38L91.94-17.38Q92.03-17.77 92.03-17.85 92.03-17.92 92.08-18.02L92.08-18.02Q92.33-18.6 92.35-18.63 92.38-18.65 92.42-18.75L92.42-18.75Q92.72-19.38 92.74-19.58 92.77-19.78 92.86-20.02L92.86-20.02Q92.96-20.26 93.08-20.51 93.21-20.75 93.21-21.04L93.21-21.04Q93.3-21.14 93.4-21.29 93.5-21.44 93.6-21.63L93.6-21.63Q93.74-21.97 93.74-22.09 93.74-22.22 93.79-22.31L93.79-22.31Q93.89-22.56 93.99-22.73 94.08-22.9 94.13-23.14L94.13-23.14Q94.38-23.78 94.57-24.17 94.77-24.56 94.87-24.95L94.87-24.95Q94.96-25.2 94.99-25.39 95.01-25.59 95.11-25.83L95.11-25.83Q95.21-26.12 95.35-26.42L95.35-26.42 95.45-27.05Q95.5-27.15 95.55-27.27 95.6-27.39 95.7-27.54L95.7-27.54Q95.84-27.98 95.87-28.25 95.89-28.52 95.99-28.76L95.99-28.76Q96.14-29.25 96.18-29.3L96.18-29.3Q96.38-30.08 96.53-30.57L96.53-30.57Q96.72-31.35 96.82-31.64 96.92-31.93 97.01-32.32L97.01-32.32Q97.06-32.62 97.11-32.71 97.16-32.81 97.21-32.96L97.21-32.96Q97.36-33.54 97.43-33.72 97.5-33.89 97.6-33.98L97.6-33.98 97.94-34.72Q98.14-34.91 98.21-35.16 98.28-35.4 98.58-35.5L98.58-35.5Q98.77-35.94 98.82-35.96 98.87-35.99 98.92-36.08L98.92-36.08Q99.11-36.38 99.31-36.57 99.5-36.77 99.65-36.82L99.65-36.82Q99.8-36.87 99.97-36.84 100.14-36.82 100.29-36.77L100.29-36.77Q100.68-36.87 100.7-36.74 100.72-36.62 100.87-36.67L100.87-36.67Q101.41-36.62 101.6-36.65 101.8-36.67 102.04-36.57L102.04-36.57Q102.63-36.67 102.78-36.43L102.78-36.43Q103.26-36.62 103.26-36.6 103.26-36.57 103.36-36.57L103.36-36.57Q103.9-36.62 104.05-36.65 104.19-36.67 104.34-36.67L104.34-36.67Q104.58-36.67 104.8-36.69 105.02-36.72 105.27-36.72L105.27-36.72Q105.61-36.72 105.9-36.6 106.19-36.47 106.44-36.33L106.44-36.33Q106.93-35.94 106.88-35.89 106.83-35.84 106.93-35.79L106.93-35.79Q107.02-35.69 107.12-35.57 107.22-35.45 107.27-35.35L107.27-35.35Q107.32-35.25 107.29-35.11 107.27-34.96 107.27-34.81L107.27-34.81Q107.37-34.38 107.56-34.03L107.56-34.03Q107.81-33.59 107.81-33.47 107.81-33.35 107.9-33.2L107.9-33.2Q107.95-32.86 108.34-32.57L108.34-32.57Q108.39-32.03 108.73-31.45L108.73-31.45Q108.88-31.25 108.93-30.86L108.93-30.86Q108.98-30.62 109.05-30.47 109.12-30.32 109.22-30.08L109.22-30.08Q109.42-29.59 109.51-29.3 109.61-29 109.71-28.76L109.71-28.76Q109.76-28.61 109.83-28.42 109.9-28.22 109.95-27.98L109.95-27.98Q110.05-27.73 110.1-27.56 110.15-27.39 110.3-27.2L110.3-27.2Q110.49-26.86 110.49-26.68 110.49-26.51 110.59-26.32L110.59-26.32Q110.69-26.12 110.76-25.95 110.83-25.78 110.98-25.63L110.98-25.63Q110.98-25.39 111.05-25.2 111.13-25 111.22-24.8L111.22-24.8Q111.42-24.22 111.42-24.07L111.42-24.07Q111.52-23.93 111.54-23.8 111.56-23.68 111.66-23.58L111.66-23.58Q111.71-23.29 111.86-23.05L111.86-23.05Q111.96-22.9 112.03-22.75 112.1-22.61 112.2-22.46L112.2-22.46Q112.39-22.02 112.37-21.85 112.35-21.68 112.39-21.53L112.39-21.53Q112.44-21.04 112.79-20.56L112.79-20.56Q112.98-19.73 113.13-19.53L113.13-19.53Q113.22-19.29 113.32-18.95 113.42-18.6 113.52-18.36L113.52-18.36Q113.62-18.21 113.66-18.12 113.71-18.02 113.76-17.77L113.76-17.77Q113.86-17.29 113.96-17.09L113.96-17.09Q114.06-16.94 114.1-16.82 114.15-16.7 114.2-16.5L114.2-16.5Q114.3-16.26 114.35-16.11 114.4-15.97 114.49-15.82L114.49-15.82Q114.59-15.63 114.62-15.48 114.64-15.33 114.74-15.14L114.74-15.14Q114.89-14.65 114.98-14.53 115.08-14.4 115.18-14.21L115.18-14.21Q115.28-14.01 115.3-13.82 115.32-13.62 115.42-13.38L115.42-13.38Q115.52-13.23 115.62-13.11 115.72-12.99 115.81-12.79L115.81-12.79Q115.96-12.4 115.96-12.3 115.96-12.21 116.06-12.11L116.06-12.11Q116.4-11.62 116.4-11.52 116.4-11.43 116.4-11.33L116.4-11.33Q116.5-11.08 116.62-10.91 116.74-10.74 116.84-10.55L116.84-10.55Q117.08-10.06 117.16-9.86 117.23-9.67 117.33-9.52L117.33-9.52Q117.47-9.38 117.67-9.08L117.67-9.08Q117.81-8.69 117.81-8.64 117.81-8.59 117.91-8.5L117.91-8.5Q118.11-7.91 118.16-7.86 118.21-7.81 118.21-7.76L118.21-7.76Q118.3-7.67 118.3-7.52 118.3-7.37 118.4-7.23L118.4-7.23Q118.45-7.08 118.52-6.96 118.6-6.84 118.64-6.69L118.64-6.69Q118.94-6.15 118.94-6.05L118.94-6.05Q119.28-5.66 119.3-5.52 119.33-5.37 119.43-5.27L119.43-5.27Q119.52-5.08 119.72-4.79L119.72-4.79Q120.06-4.2 120.23-4.1 120.4-4 120.5-3.81L120.5-3.81Q120.7-3.32 120.74-3.08 120.79-2.83 120.89-2.64L120.89-2.64Q120.7-2.1 120.7-2.05L120.7-2.05 120.26-1.71Q119.91-1.32 119.82-1.32 119.72-1.32 119.62-1.27L119.62-1.27Q118.84-1.07 118.3-0.68L118.3-0.68Q117.81-0.59 117.74-0.56 117.67-0.54 117.62-0.44L117.62-0.44Q117.42-0.44 117.28-0.39 117.13-0.34 116.98-0.29L116.98-0.29Q116.89-0.24 116.76-0.24 116.64-0.24 116.45-0.2L116.45-0.2Q116.3-0.15 116.13-0.05 115.96 0.05 115.76 0.15L115.76 0.15Q115.67 0.2 115.52 0.27 115.37 0.34 115.28 0.39L115.28 0.39Q115.03 0.44 114.74 0.46 114.45 0.49 114.15 0.54L114.15 0.54Q113.91 0.59 113.71 0.59 113.52 0.59 113.27 0.63L113.27 0.63Q112.93 0.63 112.79 0.61 112.64 0.59 112.44 0.54L112.44 0.54Q112.25 0.44 112.1 0.46 111.96 0.49 111.86 0.44L111.86 0.44Q111.32-0.29 111.15-0.56 110.98-0.83 110.93-1.37L110.93-1.37 110.69-1.95Q110.64-2.15 110.64-2.49L110.64-2.49Q110.39-3.03 110.39-3.17L110.39-3.17Q110.25-3.47 110.25-3.81 110.25-4.15 110.15-4.44L110.15-4.44Q110.05-4.69 110.03-4.98 110-5.27 109.9-5.62L109.9-5.62Q109.86-5.81 109.81-6.03 109.76-6.25 109.71-6.49L109.71-6.49Q109.56-7.08 109.56-7.08L109.56-7.08Q109.37-7.57 109.27-7.86ZM102.82-24.95L102.82-24.95Q102.29-24.61 102.21-24.15 102.14-23.68 101.95-23.39L101.95-23.39Q101.7-22.8 101.6-22.51L101.6-22.51Q101.51-22.41 101.51-22.27 101.51-22.12 101.46-21.97L101.46-21.97Q101.21-21.44 101.19-21.26 101.16-21.09 101.07-20.85L101.07-20.85Q100.92-20.75 100.87-20.53 100.82-20.31 100.68-20.17L100.68-20.17Q100.58-19.48 100.38-18.99L100.38-18.99Q100.14-18.36 100.11-18.24 100.09-18.12 100.09-17.92L100.09-17.92Q99.85-17.43 99.85-17.36 99.85-17.29 99.75-17.19L99.75-17.19Q99.6-16.85 99.53-16.7 99.46-16.55 99.41-16.46L99.41-16.46Q99.26-15.92 99.21-15.72 99.16-15.53 99.11-15.38L99.11-15.38Q99.02-14.7 98.99-14.6 98.97-14.5 98.87-14.36L98.87-14.36Q98.77-14.11 98.75-13.94 98.72-13.77 98.63-13.57L98.63-13.57Q98.53-13.09 98.48-12.89L98.48-12.89Q98.38-12.55 98.33-12.45 98.28-12.35 98.23-12.26L98.23-12.26Q98.04-11.77 98.04-11.67L98.04-11.67Q97.99-11.43 97.92-11.25 97.84-11.08 97.8-10.94L97.8-10.94Q97.99-10.84 98.14-10.86 98.28-10.89 98.53-10.94L98.53-10.94Q98.92-10.74 99.43-10.86 99.94-10.99 100.19-10.84L100.19-10.84Q100.29-10.94 100.46-10.94 100.63-10.94 100.77-10.94L100.77-10.94Q100.92-10.99 101.31-10.99L101.31-10.99Q101.46-10.99 101.63-10.96 101.8-10.94 101.99-10.94L101.99-10.94 103.12-10.94Q103.51-10.99 103.56-10.96 103.61-10.94 103.7-10.94L103.7-10.94Q103.8-10.89 103.95-10.91 104.09-10.94 104.24-10.94L104.24-10.94 105.46-10.94 106.19-10.94Q106.44-10.94 106.66-10.99 106.88-11.04 107.02-10.94L107.02-10.94Q107.17-10.99 107.66-10.99L107.66-10.99Q107.9-11.62 107.9-11.62L107.9-11.62Q107.71-12.06 107.63-12.35 107.56-12.65 107.41-12.94L107.41-12.94Q107.41-13.18 107.34-13.43 107.27-13.67 107.22-13.92L107.22-13.92Q107.07-14.5 107.02-14.72 106.97-14.94 106.88-15.14L106.88-15.14Q106.68-15.53 106.68-15.65 106.68-15.77 106.63-15.87L106.63-15.87Q106.39-16.36 106.39-16.55L106.39-16.55Q106.29-16.75 106.19-17.14L106.19-17.14Q105.95-17.63 105.95-17.8 105.95-17.97 105.9-18.07L105.9-18.07Q105.71-18.65 105.68-18.8 105.66-18.95 105.61-19.04L105.61-19.04Q105.56-19.19 105.53-19.31 105.51-19.43 105.46-19.58L105.46-19.58Q105.22-19.97 105.17-20.17 105.12-20.36 105.02-20.51L105.02-20.51Q104.92-20.75 104.88-21 104.83-21.24 104.73-21.39L104.73-21.39 104.48-22.02Q104.19-22.71 104.05-22.9 103.9-23.1 103.9-23.34L103.9-23.34Q103.65-23.63 103.65-23.83L103.65-23.83Q103.51-24.07 103.51-24.19 103.51-24.32 103.41-24.41L103.41-24.41Q103.17-24.95 102.82-24.95Z" opacity="1" transform="matrix(1,0,0,1,0,0)" fill="#ffffff" class="wordmark-text-0" data-fill-palette-color="primary" id="text-0"></path></svg></g></svg></g><g transform="matrix(1,0,0,1,42.784000000000006,88.27151879616447)"><svg viewBox="0 0 138.432 17.859816149068322" height="17.859816149068322" width="138.432"><g transform="matrix(1,0,0,1,0,0)"><svg width="138.432" viewBox="4.1 -35.7 281.72999999999996 36.35" height="17.859816149068322" data-palette-color="#846513"><path d="M10.9 0L4.1 0 5.35-35.05 14.3-35.05 20.7-14.3 21-14.3 27.55-35.05 36.4-35.05 37.65 0 30.85 0 30.9-27.5 30.6-27.5 24.55-7.55 17.2-7.55 11.15-27.5 10.85-27.5 10.9 0ZM53.1 0L46.2 0 46.4-16.1 46.2-35.05 53.1-35.05 52.95-19.45 53.1 0ZM71 0.65L71 0.65Q68.7 0.65 66.57 0.18 64.45-0.3 62.8-0.9 61.15-1.5 60.2-1.98 59.25-2.45 59.25-2.45L59.25-2.45Q59.25-2.45 59.52-3.28 59.8-4.1 60.15-5.18 60.5-6.25 60.77-7.03 61.05-7.8 61.05-7.8L61.05-7.8Q61.05-7.8 62.02-7.43 63-7.05 64.59-6.55 66.2-6.05 68.12-5.68 70.05-5.3 72-5.3L72-5.3Q73.05-5.3 73.65-5.48 74.25-5.65 74.55-5.85L74.55-5.85Q75.2-6.3 75.59-7.18 76-8.05 76-9.65L76-9.65Q76-11.05 75.05-12.03 74.09-13 72.57-13.78 71.05-14.55 69.3-15.35L69.3-15.35Q67.55-16.15 65.92-16.98 64.3-17.8 62.97-18.93 61.65-20.05 60.87-21.78 60.09-23.5 60.09-26.05L60.09-26.05Q60.09-28.75 61.4-30.93 62.7-33.1 65.34-34.4 68-35.7 71.9-35.7L71.9-35.7Q73.65-35.7 75.37-35.48 77.09-35.25 78.55-34.95 80-34.65 80.84-34.43 81.7-34.2 81.7-34.2L81.7-34.2 80.59-28.7Q80.59-28.7 79.7-28.85 78.8-29 77.34-29.23 75.9-29.45 74.2-29.6 72.5-29.75 70.95-29.75L70.95-29.75Q69.95-29.75 69.34-29.6 68.75-29.45 68.3-29.2L68.3-29.2Q67.84-28.9 67.47-28.23 67.09-27.55 67.09-26.15L67.09-26.15Q67.09-24.9 67.9-23.98 68.7-23.05 70.02-22.35 71.34-21.65 72.9-20.95L72.9-20.95Q74.55-20.2 76.3-19.38 78.05-18.55 79.57-17.38 81.09-16.2 82.05-14.43 83-12.65 83-10L83-10Q83-6.8 81.47-4.4 79.95-2 77.27-0.68 74.59 0.65 71 0.65ZM88.94 0.65L88.94 0.65Q87.94 0.65 86.97 0.53 85.99 0.4 85.32 0.28 84.64 0.15 84.59 0.15L84.59 0.15 85.24-5.65Q85.94-5.55 87.14-5.38 88.34-5.2 89.24-5.2L89.24-5.2Q90.14-5.2 90.67-5.6 91.19-6 91.49-7.45 91.79-8.9 91.79-11.95L91.79-11.95 91.79-35.05 98.64-35.05 98.64-12.2Q98.64-7.4 97.37-4.58 96.09-1.75 93.89-0.55 91.69 0.65 88.94 0.65ZM120.14 0.65L120.14 0.65Q117.19 0.65 114.59-0.15 111.99-0.95 109.99-2.93 107.99-4.9 106.87-8.47 105.74-12.05 105.74-17.6L105.74-17.6Q105.74-23.15 106.87-26.68 107.99-30.2 109.99-32.18 111.99-34.15 114.59-34.93 117.19-35.7 120.14-35.7L120.14-35.7Q123.09-35.7 125.69-34.93 128.29-34.15 130.29-32.18 132.29-30.2 133.42-26.68 134.54-23.15 134.54-17.6L134.54-17.6Q134.54-12.05 133.42-8.47 132.29-4.9 130.29-2.93 128.29-0.95 125.72-0.15 123.14 0.65 120.14 0.65ZM120.14-5.4L120.14-5.4Q122.04-5.4 123.39-5.83 124.74-6.25 125.64-7.5 126.54-8.75 126.97-11.18 127.39-13.6 127.39-17.5L127.39-17.5Q127.39-21.4 126.99-23.83 126.59-26.25 125.69-27.5 124.79-28.75 123.42-29.2 122.04-29.65 120.14-29.65L120.14-29.65Q118.19-29.65 116.82-29.2 115.44-28.75 114.57-27.5 113.69-26.25 113.29-23.83 112.89-21.4 112.89-17.5L112.89-17.5Q112.89-13.55 113.32-11.15 113.74-8.75 114.62-7.5 115.49-6.25 116.87-5.83 118.24-5.4 120.14-5.4ZM148.14 0L141.79 0 141.79-35.05 150.64-35.05 162.34-8.25 162.59-8.25 161.94-35.05 168.29-35.05 168.29 0 159.44 0 147.69-26.85 147.44-26.85 148.14 0ZM179.39 0L172.29 0 181.89-35.05 190.94-35.05 200.54 0 193.44 0 190.79-11 194.49-8.2 178.34-8.2 182.04-11 179.39 0ZM186.99-31.7L181.99-11 179.64-14 193.19-14 190.84-11 185.84-31.7 189.64-28.75 183.19-28.75 186.99-31.7ZM211.68 0L204.83 0 205.03-16.35 204.88-35Q205.23-35.05 206.63-35.15 208.03-35.25 209.96-35.38 211.88-35.5 213.91-35.6 215.93-35.7 217.53-35.7L217.53-35.7Q221.43-35.7 224.26-34.58 227.08-33.45 228.63-30.95 230.18-28.45 230.18-24.25L230.18-24.25Q230.18-20.05 228.36-17.45 226.53-14.85 222.98-13.8L222.98-13.8 222.98-13.55 230.68 0 223.03 0 216.63-12.85 211.68-13 211.68 0ZM217.78-18.35L217.78-18.35Q221.03-18.35 222.03-19.78 223.03-21.2 223.03-24.2L223.03-24.2Q223.03-26.85 222.63-28.05 222.23-29.25 221.58-29.65L221.58-29.65Q221.13-29.95 220.16-30.13 219.18-30.3 217.83-30.3L217.83-30.3Q215.83-30.3 214.36-30.18 212.88-30.05 211.73-29.9L211.73-29.9 211.68-18.75Q213.23-18.6 214.81-18.48 216.38-18.35 217.78-18.35ZM260.23 0L234.73 0 234.73-5.5 251.78-29.2 251.78-29.55 235.78-29.15 235.78-35.05 259.88-35.05 259.88-29.65 243.08-5.9 243.08-5.55 260.23-5.9 260.23 0ZM285.83 0L265.83 0 265.83-35.05 285.83-35.05 285.83-29.15 269.63-29.35 272.78-32.35 272.33-17.75 269.38-20.65 284.58-20.65 284.58-14.9 269.38-14.9 272.33-17.85 272.78-2.7 269.63-5.75 285.83-5.9 285.83 0Z" opacity="1" transform="matrix(1,0,0,1,0,0)" fill="#ffffff" class="slogan-text-1" data-fill-palette-color="secondary" id="text-1"></path></svg></g></svg></g></svg></g></svg></g><g transform="matrix(1,0,0,1,42.784000000000006,0)"><svg viewBox="0 0 138.432 110.10920464972382" height="110.10920464972382" width="138.432"><g><svg xmlns="http://www.w3.org/2000/svg" xmlns:xlink="http://www.w3.org/1999/xlink" version="1.1" x="0" y="0" viewBox="5.000065102750694 14.207342845364039 89.99977599212072 71.58607658016732" enable-background="new 0 0 100 100" xml:space="preserve" height="110.10920464972382" width="138.432" class="icon-icon-0" data-fill-palette-color="accent" id="icon-0"><g fill="#111111" data-fill-palette-color="accent"><g fill="#111111" data-fill-palette-color="accent"><g fill="#111111" data-fill-palette-color="accent"><path d="M7.051 68.666c-1.753 0.546-2.425 2.728-1.85 4.472 1.618 4.904 5.017 13.753 8.137 12.543 6.047-2.346 10.175-7.105 13.812-6.741 5.734 0.574 6.869 2.533 12.833-7.847 1.143-1.989 6.149-17.192 6.725-19.717 0.157-0.688 0.236-1.352 0.249-1.98 0.096-4.463-3.097-7.075-4.771-2.983-1.754 4.288-2.558 4.646-3.361 7.513-0.353 1.259-3.197 6.22-5.03 9.62-0.308-6.936 6.42-28.793 7.745-34.001 2.201-8.655 3.596-11.025 3.318-13.322-0.243-2.009-2.888-2.871-4.152-0.445-0.307 0.588-1.215 2.116-1.34 2.373-4.96 10.195-5.884 19.618-14.101 33.178-2.373 3.915-2.795 6.262-5.606 9.86C17.815 63.55 12.85 66.859 7.051 68.666z" fill="#ffffff" data-fill-palette-color="accent"></path></g><path d="M26.982 43.643c-0.083 0.266 0.252 0.428 0.375 0.181 4.207-8.43 5.216-14.329 8.14-20.61 0.047-0.1 0.259-0.484 0.469-0.868-0.476-0.999-1.134-1.981-1.846-0.55-0.198 0.399-1.136 2.899-1.206 3.078C30.519 30.952 28.986 37.22 26.982 43.643z" fill="#ffffff" data-fill-palette-color="accent"></path><g fill="#111111" data-fill-palette-color="accent"><path d="M92.904 68.069c1.761 0.522 2.463 2.694 1.912 4.446-1.55 4.926-4.826 13.822-7.962 12.655-6.079-2.262-10.272-6.963-13.904-6.548-5.725 0.654-6.833 2.628-12.941-7.668-1.171-1.973-6.387-17.104-6.999-19.622-0.167-0.685-0.254-1.349-0.277-1.976-0.158-4.461 2.999-7.117 4.729-3.049 1.814 4.263 2.622 4.61 3.465 7.465 0.37 1.254 3.283 6.175 5.163 9.549 0.211-6.939-6.82-28.701-8.216-33.89-2.321-8.624-3.748-10.974-3.503-13.274 0.215-2.012 2.848-2.911 4.146-0.503 0.315 0.584 1.244 2.099 1.372 2.354 5.101 10.125 6.156 19.535 14.561 32.978 2.427 3.882 2.881 6.222 5.742 9.781C82.071 63.103 87.08 66.343 92.904 68.069z" fill="#ffffff" data-fill-palette-color="accent"></path></g><path d="M72.868 43.012c0.087 0.265-0.246 0.431-0.373 0.186-4.323-8.371-5.415-14.255-8.426-20.495-0.048-0.099-0.266-0.48-0.481-0.861 0.462-1.005 1.637-1.341 2.369 0.081 0.204 0.396 0.801 1.422 0.885 1.595C69.708 29.456 70.775 36.617 72.868 43.012z" fill="#ffffff" data-fill-palette-color="accent"></path></g></g></svg></g></svg></g><g></g></svg></g></svg></g></svg></g><defs></defs></svg><rect width="320" height="360" fill="none" stroke="none" visibility="hidden"></rect></g></svg></g></svg>