<svg width="1700" height="651" viewBox="0 0 1700 651" fill="none" xmlns="http://www.w3.org/2000/svg">
<path d="M1058.5 630.2L1058 609.3L1054.7 603.1C1050.2 594.6 1045.2 590.6 1036.9 588.5C1013.8 582.8 1002.7 578.2 990.199 569.2C964.099 550.5 948.199 526.1 937.199 487.8C933.299 473.9 929.699 457.3 929.699 452.8V449.8L1006.5 450.4C1048.7 450.7 1097.5 451.3 1114.9 451.6L1146.6 452.2L1149.1 449.7C1152.3 446.5 1152.4 444.6 1149.2 441.5L1146.8 439H1122C1108.4 439 1057 438.5 1007.8 438C936.599 437.3 918.199 436.8 917.599 435.8C917.099 435.1 916.699 432.8 916.699 430.8C916.699 426.1 921.399 420.6 928.399 417L933.199 414.5L971.699 414.7C1012.7 414.8 1113.7 416.6 1137.5 417.6C1145.8 418 1151.7 418.6 1151.7 419.2C1151.7 421.9 1155.2 426.9 1157.8 428C1160.6 429.2 1167.9 428.7 1170.4 427.2C1171.1 426.8 1179.9 374.7 1192.2 297.5C1203.6 226.5 1213.4 167.9 1213.9 167.3C1215.7 165.1 1224.6 165.9 1250.3 170.5C1303.4 179.9 1328 184.9 1329.5 186.3C1330.8 187.6 1328.9 203.3 1313.3 319.2C1303.6 391.4 1295.4 451.7 1295.1 453.2C1294.8 454.8 1293.7 456.2 1292.4 456.6C1291.2 457 1276.5 460.1 1259.7 463.4L1229.2 469.6L1229.5 474.5C1230.1 483.9 1227.7 507.2 1225 517C1217.8 543.7 1209.2 559.8 1193.8 575.1C1184.3 584.6 1178.5 588.4 1169.9 590.9C1164.3 592.6 1164.2 592.7 1161.8 598.6C1157.7 608.8 1156.5 618.7 1157.3 635.8L1158 651H1108.5H1059L1058.5 630.2Z" fill="#003876"/>
<path d="M22.8992 528.3L23.1992 409.5L46.9992 409.2L70.6992 409V453.1V497.3L102.499 453.2L134.199 409.1L161.499 409H188.899L185.399 413.8C183.499 416.4 168.899 436.3 152.999 458.1C137.099 479.8 123.699 498.2 123.299 498.8C122.799 499.7 190.199 614 209.299 644.8L210.699 647H182.799H154.899L112.999 576.2L71.1992 505.4L70.8992 576.2L70.6992 647H46.6992H22.6992L22.8992 528.3Z" fill="#003876"/>
<path d="M236.699 528V409H261.199H285.699V528V647H261.199H236.699V528Z" fill="#003876"/>
<path d="M337.699 527.9V408.9L382.499 409.3C431.799 409.7 433.699 409.9 446.599 416.3C455.599 420.7 466.399 431.4 470.499 440C479.899 459.4 478.499 479 466.499 494.8L462.399 500.4L465.799 502.9C472.599 507.9 483.399 519.7 487.499 526.5C505.899 557.6 499.999 598.3 473.499 623.6C465.299 631.5 456.599 637.1 446.699 640.9C432.499 646.4 425.899 647 379.599 647H337.699V527.9ZM425.699 600.4C455.799 586.1 455.999 541.9 425.899 527.7C419.299 524.5 418.999 524.5 401.499 524.2L383.699 523.8V564V604.2L401.499 603.8C418.899 603.5 419.299 603.4 425.699 600.4ZM416.299 488.5C418.999 487.7 423.199 485.4 425.499 483.5C435.399 475 434.399 456.5 423.799 449.3C417.799 445.3 411.399 444 396.999 444H383.699V467V490H397.499C406.799 490 412.999 489.5 416.299 488.5Z" fill="#003876"/>
<path d="M536.699 528V409H561.199H585.699V506.5V604H621.199H656.699V625.5V647H596.699H536.699V528Z" fill="#003876"/>
<path d="M695.2 645.8C694.9 645.1 694.8 591.6 694.9 527L695.2 409.5L758.5 409.2L821.7 409V429.5V450L781.5 450.2L741.2 450.5L740.9 468.8L740.7 487H772.2H803.7V507V527H772.2H740.7V565.5V604H781.2H821.7V625.5V647H758.7C709.2 647 695.5 646.7 695.2 645.8Z" fill="#003876"/>
<path d="M1329.2 392.4C1327.8 390.9 1326.7 388.5 1326.7 386.9C1326.7 382.8 1344.5 269.1 1345.9 264.5C1349.3 253 1355.9 245.1 1374.8 229.9C1390.6 217.1 1694 0 1696 0C1699.6 0.1 1699.8 1.40001 1698.7 12.6C1697.3 26.3 1695 36 1688.6 56.4C1681.2 79.5 1679.1 83.7 1669.5 94.4C1661.6 103.1 1633.4 129 1623.5 136.5C1621 138.5 1565.2 170.1 1499.5 206.7C1433.9 243.3 1378.2 274.8 1375.8 276.8C1373 279.1 1370.6 282.3 1369.1 285.7C1367.7 288.8 1362.5 310.7 1356.7 337.8C1351.2 363.5 1346 386.3 1345.2 388.6C1343.5 393.2 1340.6 395 1335.1 395C1332.6 395 1330.9 394.2 1329.2 392.4Z" fill="#003876"/>
<path d="M48.9996 237.8C22.4996 171.1 0.499603 115.7 0.0996028 114.7C-0.500397 113.1 0.899611 113 24.6996 113.2L49.8996 113.5L71.6996 168.7C83.6996 199.1 95.2996 229.2 97.3996 235.5C99.4996 241.8 101.4 247 101.8 247C102.1 247 103.3 244 104.5 240.3C107.9 229.9 159.2 106.9 160.2 106.9C161.2 106.9 210.1 222.3 215.6 237.9L219.4 248.2L223.6 236C227.2 225.4 241.1 189.4 264.2 130.3L271 113H294.8H318.7L316.9 117.7C315.9 120.4 294 175.7 268.2 240.7C240.2 311 220.9 358.4 220.5 357.6C219.4 355.6 173.1 245 167.7 231.5C165.1 224.9 162.2 217.1 161.2 214.2C160.3 211.3 159.3 209 159.2 209.2C159 209.4 157.3 213.8 155.4 219C153.5 224.2 144.4 246.5 135.2 268.5C126 290.5 114 319.3 108.5 332.5C103 345.7 98.1996 357.1 97.7996 357.8C97.3996 358.5 76.2996 306.6 48.9996 237.8Z" fill="#003876"/>
<path d="M892.399 287.3L821.699 216.5V283.8V351H799.199H776.699V229.2C776.699 162.2 776.999 107 777.399 106.7C777.699 106.3 809.799 137.6 848.599 176.2L919.199 246.5L919.499 179.8L919.699 113H942.199H964.699V235.5C964.699 302.9 964.399 358 963.899 358C963.499 358 931.399 326.2 892.399 287.3Z" fill="#003876"/>
<path d="M437.499 354.9C399.099 350.5 363.899 327.5 343.399 293.4C338.299 284.9 331.999 268.9 329.499 257.8C326.599 245.3 326.399 220.5 329.099 208.2C337.399 169.7 361.099 139.2 396.699 121.2C414.499 112.3 430.899 108.5 452.699 108.5C475.099 108.5 489.399 111.8 509.199 121.6C519.199 126.5 538.699 139.7 539.599 142.2C539.999 143.4 536.899 146.7 519.499 163.2L505.699 176.2L499.999 171.1C493.599 165.3 481.299 158.9 471.699 156.4C467.099 155.1 461.499 154.6 452.699 154.6C438.099 154.6 431.199 156.1 419.099 162.1C399.799 171.6 384.899 189.7 379.099 211C376.599 220 376.499 242.8 378.999 252C381.399 261.3 388.699 275.4 394.799 282.8C404.299 294.3 419.399 303.8 434.199 307.6C443.399 309.9 461.599 310 470.899 307.7C479.699 305.5 488.999 301.3 495.199 296.5L500.099 292.7L507.499 300.6C526.799 321.2 531.699 326.9 531.699 328.4C531.699 329.3 531.299 330 530.799 330C530.199 330 526.199 332.4 521.799 335.4C498.299 351.1 467.299 358.3 437.499 354.9Z" fill="#003876"/>
<path d="M618.699 232V113H643.199H667.699V210.5V308H703.199H738.699V329.5V351H678.699H618.699V232Z" fill="#003876"/>
<path d="M1015.7 232V113H1079.2H1142.7V133.5V154H1102.2H1061.7V172.5V191H1092.7H1123.7V210.5V230H1092.7H1061.7V269V308H1102.2H1142.7V329.5V351H1079.2H1015.7V232Z" fill="#003876"/>
<path d="M512.999 312.8L496.899 295.5L503.199 289.5C514.899 278.3 522.799 264.9 526.399 250.3C528.899 239.9 528.699 221.6 525.899 211.7C522.199 198.8 515.299 186.6 506.099 176.9L502.699 173.4L520.299 156.5L537.799 139.7L543.299 145.1C557.199 158.7 570.299 181.4 575.299 200.5C578.799 213.7 579.799 239.6 577.299 253.5C574.399 270.3 567.699 286.6 557.399 302C552.099 309.9 532.699 330 530.399 330C529.599 330 521.799 322.2 512.999 312.8Z" fill="#F2652A"/>
<path d="M1371.7 328.9C1371.7 328.1 1373.5 319.4 1375.8 309.5C1379.8 291.9 1380 291.4 1384.1 287.3C1387.3 283.9 1412.3 269.9 1501.7 221.1L1615.2 159.2L1634.5 143.3C1660.1 122.4 1659.7 122.6 1661.7 124.5C1662.8 125.7 1663.2 128 1663.1 132.8C1662.9 139.3 1662.4 140.7 1648.1 170.9C1632.7 203.4 1628 210.8 1618.7 218C1616.2 220 1384.6 325.2 1373 329.7C1372.3 330 1371.7 329.6 1371.7 328.9Z" fill="#F2652A"/>
<path d="M1365.7 362.1C1365.9 358.5 1370.9 344.4 1372.4 343.6C1376.7 341.1 1568.5 255.8 1571 255.3C1573.5 254.8 1573.7 255 1573.7 257.7C1573.7 261.1 1567.1 279.3 1562.8 287.8C1558.5 296.3 1548 311.8 1544.2 315.5C1542.3 317.2 1536.6 320.8 1531.5 323.3C1522.3 327.9 1520.4 328.4 1447.7 344.5C1406.7 353.6 1371.5 361.4 1369.5 361.9C1367.4 362.4 1365.7 362.5 1365.7 362.1Z" fill="#F47C4A"/>
</svg>
